# AST/ASF file generated using VICON BodyLanguage
# -----------------------------------------------
:version 1.10
:name VICON
:units
  mass 1.0
  length 0.45
  angle deg
:documentation
   .ast/.asf automatically generated from VICON data using
   VICON BodyBuilder and BodyLanguage model FoxedUp or BRILLIANT.MOD
:root
   order TX TY TZ RX RY RZ
   axis XYZ
   position 0 0 0  
   orientation 0 0 0 
:bonedata
  begin
     id 1 
     name lhipjoint
     direction 0.643824 -0.71708 0.266994 
     length 2.52133 
     axis 0 0 0  XYZ
  end
  begin
     id 2 
     name lfemur
     direction 0.34202 -0.939693 0  
     length 7.51824  
     axis 0 0 20  XYZ
    dof rx ry rz
    limits (-160.0 20.0)
           (-70.0 70.0)
           (-60.0 70.0)
  end
  begin
     id 3 
     name ltibia
     direction 0.34202 -0.939693 0   
     length 7.3685   
     axis 0 0 20   XYZ
    dof rx
    limits (-10.0 170.0)
  end
  begin
     id 4 
     name lfoot
     direction 0.105419 -0.289636 0.951314   
     length 2.20972   
     axis -90 7.62852e-016 20   XYZ
    dof rx rz
    limits (-45.0 90.0)
           (-70.0 20.0)
  end
  begin
     id 5 
     name ltoes
     direction 1.53549e-011 -4.21833e-011 1   
     length 1.10139   
     axis -90 7.62852e-016 20   XYZ
    dof rx
    limits (-90.0 20.0)
  end
  begin
     id 6 
     name rhipjoint
     direction -0.608823 -0.743445 0.276811   
     length 2.43192  
     axis 0 0 0  XYZ 
  end
  begin
     id 7 
     name rfemur
     direction -0.34202 -0.939693 0   
     length 7.69715   
     axis 0 0 -20   XYZ
    dof rx ry rz
    limits (-160.0 20.0)
           (-70.0 70.0)
           (-70.0 60.0)
  end
  begin
     id 8 
     name rtibia
     direction -0.34202 -0.939693 0   
     length 7.44924   
     axis 0 0 -20   XYZ
    dof rx
    limits (-10.0 170.0)
 end
 begin
     id 9 
     name rfoot
     direction -0.103614 -0.284677 0.953007   
     length 2.22623  
     axis -90 -7.62852e-016 -20   XYZ
    dof rx rz
    limits (-45.0 90.0)
           (-20.0 70.0)
  end
  begin
     id 10 
     name rtoes
     direction -1.53537e-011 -4.22026e-011 1   
     length 1.11   
     axis -90 -7.62852e-016 -20   XYZ
    dof rx
    limits (-90.0 20.0)
  end
  begin
     id 11 
     name lowerback
     direction -0.0101212 0.99662 -0.0815298   
     length 2.08277   
     axis 0 0 0   XYZ
    dof rx ry rz
    limits (-20.0 45.0)
           (-30.0 30.0)
           (-30.0 30.0)
  end
  begin
     id 12 
     name upperback
     direction 0.024314 0.999591 -0.0150645   
     length 2.08524   
     axis 0 0 0   XYZ
    dof rx ry rz
    limits (-20.0 45.0)
           (-30.0 30.0)
           (-30.0 30.0)
  end
  begin
     id 13 
     name thorax
     direction 0.0285959 0.999323 0.0231357   
     length 2.09645   
     axis 0 0 0   XYZ
    dof rx ry rz
    limits (-20.0 45.0)
           (-30.0 30.0)
           (-30.0 30.0)
  end
  begin
     id 14 
     name lowerneck
     direction -0.065512 0.979301 0.191515   
     length 1.63798   
     axis 0 0 0   XYZ
    dof rx ry rz
    limits (-20.0 45.0)
           (-30.0 30.0)
           (-30.0 30.0)
  end
  begin
     id 15 
     name upperneck
     direction 0.0498479 0.98191 -0.182667   
     length 1.68731   
     axis 0 0 0   XYZ
    dof rx ry rz
    limits (-20.0 45.0)
           (-30.0 30.0)
           (-30.0 30.0)
  end
  begin
     id 16
     name head
     direction 0.0230358 0.996257 -0.0833175  
     length 1.69785  
     axis 0 0 0   XYZ
    dof rx ry rz
    limits (-20.0 45.0)
           (-30.0 30.0)
           (-30.0 30.0)
  end
  begin
     id 17 
     name lclavicle
     direction 0.967963 0.201165 -0.150269  
     length 3.63976  
     axis 0 0 0   XYZ
    dof ry rz
    limits (-20.0 10.0)
           (0.0 20.0)
  end
  begin
     id 18 
     name lhumerus
     direction 1 -4.48954e-011 -2.92837e-028   
     length 5.32462   
     axis 180 -30 -90   XYZ
    dof rx ry rz
    limits (-60.0 90.0)
           (-90.0 90.0)
           (-90.0 90.0)
  end
  begin
     id 19
     name lradius
     direction 1 -4.48958e-011 -6.39511e-027   
     length 3.48402   
     axis 180 -30 -90   XYZ
    dof rx
    limits (-10.0 170.0)
  end
  begin
     id 20
     name lwrist
     direction 1 -4.48975e-011 -1.1413e-026   
     length 1.74201   
     axis 6.88575e-015 90 90   XYZ
    dof ry
    limits (-180.0 0.0)
 end
  begin
     id 21 
     name lhand
     direction 1 -4.48899e-011 -2.28192e-026   
     length 0.572476   
     axis 1.45643e-014 90 90   XYZ
    dof rx rz
    limits (-90.0 90.0)
           (-45.0 45.0)
  end
  begin
     id 22 
     name lfingers
     direction 1 -4.49155e-011 -4.5684e-026   
     length 0.461545   
     axis 2.91283e-014 90 90   XYZ
    dof rx
    limits (0.0 90.0)
  end
  begin
     id 23
     name lthumb
     direction 0.707107 -6.34943e-011 0.707107   
     length 0.662688   
     axis -90 45 -2.25915e-014   XYZ
    dof rx rz
    limits (-45.0 45.0)
           (-45.0 45.0)
  end
  begin
     id 24 
     name rclavicle
     direction -0.964103 0.264019 -0.0282629   
     length 3.54491  
     axis 0 0 0   XYZ 
    dof ry rz
    limits (-10.0 20.0)
           (-20.0 0.0)
  end
  begin
     id 25 
     name rhumerus
     direction -1 -4.48964e-011 -2.45032e-027  
     length 5.33589   
     axis 180 30 90   XYZ
    dof rx ry rz
    limits (-90.0 60.0)
           (-90.0 90.0)
           (-90.0 90.0)
  end
  begin
     id 26 
     name rradius
     direction -1 -4.48987e-011 -1.55093e-027   
     length 3.64134   
     axis 180 30 90   XYZ
    dof rx
    limits (-10.0 170.0)
  end
  begin
     id 27 
     name rwrist
     direction -1 -4.4897e-011 -1.14128e-026   
     length 1.82067   
     axis 6.88575e-015 -90 -90   XYZ
    dof ry
    limits (-180.0 0.0)
  end
  begin
     id 28
     name rhand
     direction -1 -4.49021e-011 -2.28301e-026   
     length 0.734811   
     axis 1.45643e-014 -90 -90   XYZ
    dof rx rz
    limits (-90.0 90.0)
           (-45.0 45.0)
  end
  begin
     id 29
     name rfingers
     direction -1 -4.48862e-011 -4.56319e-026   
     length 0.592424   
     axis 2.91283e-014 -90 -90   XYZ
    dof rx
    limits (0.0 90.0)
  end
  begin
     id 30
     name rthumb
     direction -0.707107 -6.34978e-011 0.707107   
     length 0.850605   
     axis -90 -45 2.25915e-014   XYZ
    dof rx rz
    limits (-45.0 45.0)
           (-45.0 45.0)
  end
:hierarchy
  begin
    root lhipjoint rhipjoint lowerback
    lhipjoint lfemur
    lfemur ltibia
    ltibia lfoot
    lfoot ltoes
    rhipjoint rfemur
    rfemur rtibia
    rtibia rfoot
    rfoot rtoes
    lowerback upperback
    upperback thorax
    thorax lowerneck lclavicle rclavicle
    lowerneck upperneck
    upperneck head
    lclavicle lhumerus
    lhumerus lradius
    lradius lwrist
    lwrist lhand lthumb
    lhand lfingers
    rclavicle rhumerus
    rhumerus rradius
    rradius rwrist
    rwrist rhand rthumb
    rhand rfingers
  end

#!OML:ASF F:\VICON\USERDATA\INSTALL\rory3\rory3.ASF
:FULLY-SPECIFIED
:DEGREES
45
root 1.29854 17.74 12.9877 -173.22 -2.09005 180.49
lowerback 0.204746 -1.37551 -2.76215
upperback -0.951549 -1.88523 2.81406
thorax -0.909348 -0.932676 4.46588
lowerneck -23.645 -2.72337 -8.40223
upperneck 35.1757 0.619317 2.88924
head 16.733 0.253744 3.0941
rclavicle -6.5102e-015 1.94809e-014
rhumerus -32.3786 -6.75529 -80.8696
rradius 31.849
rwrist 20.5969
rhand -21.8302 1.86079
rfingers 7.12502
rthumb 4.57275 -28.0699
lclavicle -6.5102e-015 1.94809e-014
lhumerus -32.9233 9.42982 85.7026
lradius 25.651
lwrist -10.4833
lhand -12.5673 26.9093
lfingers 7.12502
lthumb 13.5102 56.4511
rfemur -18.2581 4.69525 21.5286
rtibia 32.2054
rfoot -19.8148 -5.63629
rtoes 10.5201
lfemur -14.119 1.15774 -23.8245
ltibia 24.6685
lfoot -13.8908 3.19293
ltoes -11.696
46
root 1.29867 17.737 12.9763 -173.665 -2.64437 180.318
lowerback 0.540282 -1.52196 -2.92361
upperback -0.819226 -2.08256 2.75203
thorax -0.938889 -1.02912 4.50158
lowerneck -23.5692 -2.75231 -8.40648
upperneck 35.1168 0.561886 2.89288
head 16.6891 0.231323 3.08092
rclavicle 2.3556e-014 0
rhumerus -32.4522 -6.78169 -80.8401
rradius 31.7745
rwrist 20.5402
rhand -21.8875 1.8019
rfingers 7.12502
rthumb 4.51738 -28.1299
lclavicle 2.3556e-014 0
lhumerus -32.899 9.24825 85.7517
lradius 25.6951
lwrist -10.3462
lhand -12.4988 27.0588
lfingers 7.12502
lthumb 13.5763 56.5961
rfemur -17.6196 4.42374 21.4437
rtibia 32.202
rfoot -20.1135 -5.77899
rtoes 10.6596
lfemur -13.5723 0.993858 -23.9401
ltibia 24.6312
lfoot -13.9478 2.83307
ltoes -11.7021
47
root 1.29862 17.7346 12.9716 -173.866 -2.86912 180.23
lowerback 0.709578 -1.5734 -3.05388
upperback -0.766291 -2.15359 2.7293
thorax -0.968573 -1.0628 4.55674
lowerneck -23.5384 -2.76876 -8.41341
upperneck 35.1329 0.535788 2.91405
head 16.692 0.224913 3.08722
rclavicle -7.35503e-015 1.70955e-014
rhumerus -32.506 -6.77815 -80.8034
rradius 31.7288
rwrist 20.5769
rhand -21.5747 1.80044
rfingers 7.12502
rthumb 4.8194 -28.1248
lclavicle -7.35503e-015 1.70955e-014
lhumerus -32.8789 9.26533 85.7549
lradius 25.6938
lwrist -10.3461
lhand -12.3786 27.0854
lfingers 7.12502
lthumb 13.6921 56.615
rfemur -17.344 4.40677 21.3857
rtibia 32.2286
rfoot -20.3377 -5.89328
rtoes 10.6298
lfemur -13.2842 0.956461 -24.006
ltibia 24.5436
lfoot -13.9909 2.66536
ltoes -11.9878
48
root 1.29544 17.7343 12.9717 -173.878 -2.83305 180.259
lowerback 0.69288 -1.53685 -3.04758
upperback -0.733488 -2.10387 2.71365
thorax -0.931276 -1.03904 4.53522
lowerneck -23.557 -2.77459 -8.42902
upperneck 35.1165 0.491163 3.00892
head 16.6902 0.217392 3.12232
rclavicle 9.49197e-015 -4.13472e-014
rhumerus -32.4095 -6.84006 -80.7778
rradius 31.6081
rwrist 20.7952
rhand -21.1562 1.71523
rfingers 7.12502
rthumb 5.22351 -28.2004
lclavicle 9.49197e-015 -4.13472e-014
lhumerus -32.7937 9.25529 85.7543
lradius 25.6919
lwrist -10.322
lhand -12.3416 27.1225
lfingers 7.12502
lthumb 13.7278 56.6497
rfemur -17.3632 4.40239 21.4088
rtibia 32.2734
rfoot -20.3341 -5.90584
rtoes 10.4372
lfemur -13.2141 0.920914 -23.9875
ltibia 24.4465
lfoot -13.9877 2.73483
ltoes -12.0433
49
root 1.29355 17.7342 12.9719 -173.868 -2.82583 180.225
lowerback 0.655858 -1.50721 -3.11189
upperback -0.676772 -2.06261 2.67963
thorax -0.855331 -1.01976 4.53359
lowerneck -23.769 -2.80638 -8.46253
upperneck 35.1762 0.439232 3.08984
head 16.7753 0.197346 3.15812
rclavicle 2.32081e-014 -1.82882e-014
rhumerus -32.2726 -6.92869 -80.795
rradius 31.5454
rwrist 20.869
rhand -20.9087 1.53473
rfingers 7.12502
rthumb 5.46251 -28.3749
lclavicle 2.32081e-014 -1.82882e-014
lhumerus -32.6362 9.22668 85.7635
lradius 25.6921
lwrist -10.29
lhand -12.504 27.2118
lfingers 7.12502
lthumb 13.5713 56.7495
rfemur -17.3964 4.36397 21.3701
rtibia 32.3076
rfoot -20.3398 -5.9009
rtoes 10.2167
lfemur -13.1968 0.786135 -24.0232
ltibia 24.4225
lfoot -13.9711 2.81387
ltoes -11.6129
50
root 1.29091 17.7341 12.9715 -173.868 -2.7886 180.081
lowerback 0.645852 -1.48059 -3.30374
upperback -0.646804 -2.02689 2.65915
thorax -0.816796 -1.00109 4.61986
lowerneck -23.9099 -2.84983 -8.59757
upperneck 35.2377 0.403987 3.2005
head 16.8445 0.177513 3.22837
rclavicle -2.99171e-014 -3.18055e-014
rhumerus -32.2554 -6.91972 -80.7398
rradius 31.564
rwrist 20.8368
rhand -20.7803 1.46277
rfingers 7.12502
rthumb 5.58649 -28.4436
lclavicle -2.99171e-014 -3.18055e-014
lhumerus -32.536 9.23028 85.8263
lradius 25.7073
lwrist -10.3115
lhand -12.5273 27.3794
lfingers 7.12502
lthumb 13.5489 56.9186
rfemur -17.4183 4.38905 21.1872
rtibia 32.3409
rfoot -20.3397 -5.83749
rtoes 10.4715
lfemur -13.2081 0.743502 -24.2044
ltibia 24.4545
lfoot -13.9542 2.91433
ltoes -11.7197
51
root 1.28612 17.7333 12.9741 -173.711 -2.46731 180.104
lowerback 0.524159 -1.382 -3.33333
upperback -0.693212 -1.89359 2.6754
thorax -0.808739 -0.93391 4.64998
lowerneck -23.899 -2.86359 -8.60989
upperneck 35.2158 0.394895 3.17093
head 16.8319 0.167016 3.21378
rclavicle 7.8023e-015 -4.69132e-014
rhumerus -32.296 -6.91003 -80.7023
rradius 31.5116
rwrist 20.8193
rhand -20.9332 1.54913
rfingers 7.12502
rthumb 5.4388 -28.3611
lclavicle 7.8023e-015 -4.69132e-014
lhumerus -32.4878 9.39644 85.8122
lradius 25.7399
lwrist -10.4193
lhand -12.4501 27.2978
lfingers 7.12502
lthumb 13.6232 56.832
rfemur -17.6705 4.52394 21.1427
rtibia 32.3634
rfoot -20.182 -5.69731
rtoes 10.303
lfemur -13.4247 0.800321 -24.2465
ltibia 24.5191
lfoot -13.9175 3.21034
ltoes -12.2157
52
root 1.27989 17.733 12.9817 -173.341 -1.90428 180.184
lowerback 0.273047 -1.20656 -3.3111
upperback -0.817316 -1.65555 2.68485
thorax -0.820907 -0.813393 4.64141
lowerneck -23.8722 -2.85074 -8.57763
upperneck 35.1699 0.392408 3.16046
head 16.8013 0.168179 3.19994
rclavicle 9.83984e-015 -3.93594e-014
rhumerus -32.3745 -6.8845 -80.7051
rradius 31.5555
rwrist 20.8709
rhand -21.0546 1.64033
rfingers 7.12502
rthumb 5.32161 -28.2729
lclavicle 9.83984e-015 -3.93594e-014
lhumerus -32.4608 9.58933 85.7558
lradius 25.8348
lwrist -10.4437
lhand -12.6279 26.8773
lfingers 7.12502
lthumb 13.4519 56.4229
rfemur -18.2007 4.74481 21.1031
rtibia 32.3814
rfoot -19.9189 -5.3897
rtoes 10.4393
lfemur -13.8824 0.96071 -24.2575
ltibia 24.5889
lfoot -13.9052 3.5847
ltoes -11.8575
53
root 1.27533 17.7309 12.9827 -173.356 -1.8682 180.254
lowerback 0.357926 -1.1918 -3.26119
upperback -0.851485 -1.63811 2.69282
thorax -0.906646 -0.802775 4.62407
lowerneck -23.7865 -2.80849 -8.57188
upperneck 35.1359 0.412258 3.24305
head 16.7598 0.192035 3.23784
rclavicle 2.19657e-014 -2.42517e-014
rhumerus -32.4414 -6.89361 -80.688
rradius 31.5541
rwrist 21.112
rhand -20.8467 1.64432
rfingers 7.12502
rthumb 5.5224 -28.2637
lclavicle 2.19657e-014 -2.42517e-014
lhumerus -32.5062 9.60594 85.7498
lradius 25.9904
lwrist -10.269
lhand -12.8541 26.5859
lfingers 7.12502
lthumb 13.2339 56.1458
rfemur -18.1932 4.71206 21.1585
rtibia 32.3861
rfoot -19.8927 -5.34375
rtoes 10.339
lfemur -13.9049 0.97088 -24.2059
ltibia 24.6628
lfoot -13.9082 3.64675
ltoes -11.5958
54
root 1.27636 17.7286 12.9791 -173.68 -2.29783 180.249
lowerback 0.680913 -1.28789 -3.27613
upperback -0.778014 -1.77135 2.6626
thorax -0.998885 -0.867374 4.60944
lowerneck -23.7757 -2.82894 -8.5077
upperneck 35.1585 0.347524 3.26761
head 16.7732 0.179633 3.22596
rclavicle -3.926e-015 -1.90833e-014
rhumerus -32.4345 -7.04695 -80.697
rradius 31.4116
rwrist 21.2847
rhand -20.8056 1.64619
rfingers 7.12502
rthumb 5.56208 -28.2608
lclavicle -3.926e-015 -1.90833e-014
lhumerus -32.4569 9.48561 85.7346
lradius 26.0472
lwrist -10.1779
lhand -12.8177 26.552
lfingers 7.12502
lthumb 13.269 56.1097
rfemur -17.7591 4.56833 21.2282
rtibia 32.3986
rfoot -20.1732 -5.53243
rtoes 10.2435
lfemur -13.5733 0.908946 -24.1567
ltibia 24.7039
lfoot -13.9257 3.34116
ltoes -11.7981
55
root 1.27427 17.7281 12.976 -173.797 -2.50167 180.244
lowerback 0.77655 -1.32185 -3.25341
upperback -0.751353 -1.81689 2.61149
thorax -1.02263 -0.889486 4.54602
lowerneck -23.8003 -2.8656 -8.3874
upperneck 35.1894 0.277899 3.18519
head 16.8007 0.155588 3.15574
rclavicle 8.00108e-015 1.39149e-014
rhumerus -32.4441 -7.15026 -80.7449
rradius 31.3353
rwrist 21.2771
rhand -20.7902 1.69742
rfingers 7.12502
rthumb 5.57689 -28.2092
lclavicle 8.00108e-015 1.39149e-014
lhumerus -32.4162 9.36529 85.7067
lradius 26.1931
lwrist -10.0738
lhand -12.4743 26.9885
lfingers 7.12502
lthumb 13.5999 56.5243
rfemur -17.5956 4.43222 21.2491
rtibia 32.4016
rfoot -20.2867 -5.59207
rtoes 10.0254
lfemur -13.4679 0.873947 -24.1476
ltibia 24.739
lfoot -13.9836 3.21814
ltoes -11.7015
56
root 1.26969 17.7252 12.9736 -173.785 -2.54995 180.202
lowerback 0.739678 -1.32498 -3.27147
upperback -0.750618 -1.81901 2.56112
thorax -1.00197 -0.890256 4.50281
lowerneck -23.7819 -2.87406 -8.32727
upperneck 35.139 0.243332 3.14182
head 16.7726 0.142063 3.11549
rclavicle 5.96354e-015 -2.98177e-014
rhumerus -32.4652 -7.25919 -80.7744
rradius 31.3029
rwrist 21.3772
rhand -20.9111 1.69283
rfingers 7.12502
rthumb 5.46022 -28.2168
lclavicle 5.96354e-015 -2.98177e-014
lhumerus -32.3837 9.31946 85.6913
lradius 26.3707
lwrist -9.89191
lhand -12.2134 27.5239
lfingers 7.12502
lthumb 13.8513 57.0426
rfemur -17.5967 4.27161 21.185
rtibia 32.4012
rfoot -20.3116 -5.40765
rtoes 10.3808
lfemur -13.501 0.807787 -24.2099
ltibia 24.7972
lfoot -14.079 3.24834
ltoes -11.5273
57
root 1.26639 17.7209 12.9716 -173.835 -2.58595 180.161
lowerback 0.795991 -1.31437 -3.34329
upperback -0.763607 -1.80606 2.53814
thorax -1.04685 -0.881471 4.52135
lowerneck -23.6436 -2.88175 -8.38801
upperneck 35.0622 0.208492 3.22211
head 16.7023 0.134235 3.14985
rclavicle 2.33075e-014 -7.55382e-015
rhumerus -32.5304 -7.31874 -80.7758
rradius 31.2505
rwrist 21.3258
rhand -20.9965 1.78777
rfingers 7.12502
rthumb 5.3777 -28.124
lclavicle 2.33075e-014 -7.55382e-015
lhumerus -32.4531 9.22716 85.7339
lradius 26.6073
lwrist -9.81358
lhand -12.0249 27.9454
lfingers 7.12502
lthumb 14.033 57.4517
rfemur -17.5254 4.16475 21.1306
rtibia 32.415
rfoot -20.3411 -5.27855
rtoes 10.562
lfemur -13.4822 0.747391 -24.272
ltibia 24.8924
lfoot -14.1352 3.32294
ltoes -11.861
58
root 1.26349 17.7203 12.9747 -173.701 -2.46471 180.238
lowerback 0.713387 -1.23499 -3.30168
upperback -0.823183 -1.69877 2.5466
thorax -1.07375 -0.826968 4.50424
lowerneck -23.5064 -2.9108 -8.48066
upperneck 34.9808 0.151284 3.31122
head 16.6327 0.113922 3.18875
rclavicle 5.91384e-015 -8.74653e-015
rhumerus -32.6344 -7.24799 -80.7952
rradius 31.3499
rwrist 21.187
rhand -20.9458 1.8813
rfingers 7.12502
rthumb 5.42673 -28.0292
lclavicle 5.91384e-015 -8.74653e-015
lhumerus -32.4692 9.19654 85.7687
lradius 26.7351
lwrist -9.99255
lhand -12.1153 27.8887
lfingers 7.12502
lthumb 13.9459 57.401
rfemur -17.7307 4.13927 21.1782
rtibia 32.4448
rfoot -20.2355 -5.1847
rtoes 10.5768
lfemur -13.7131 0.763237 -24.2179
ltibia 25.0195
lfoot -14.1851 3.38517
ltoes -11.9108
59
root 1.25849 17.7184 12.9811 -173.459 -2.17709 180.288
lowerback 0.499232 -1.10353 -3.24265
upperback -0.864425 -1.51834 2.52015
thorax -1.01656 -0.738044 4.43679
lowerneck -23.4662 -2.94272 -8.56271
upperneck 34.9076 0.0866097 3.40107
head 16.5912 0.0884719 3.2253
rclavicle 1.16786e-014 -1.11319e-014
rhumerus -32.7105 -7.11602 -80.8573
rradius 31.5578
rwrist 21.0635
rhand -20.8397 1.76448
rfingers 7.12502
rthumb 5.52916 -28.1434
lclavicle 1.16786e-014 -1.11319e-014
lhumerus -32.3465 9.03038 85.8355
lradius 26.8418
lwrist -9.92152
lhand -12.1775 27.6183
lfingers 7.12502
lthumb 13.8859 57.1347
rfemur -18.1052 4.21915 21.1518
rtibia 32.5001
rfoot -20.0972 -4.99236
rtoes 10.9295
lfemur -14.0642 0.783844 -24.2216
ltibia 25.1555
lfoot -14.2432 3.59686
ltoes -11.9944
